<svg width="292" height="104" viewBox="0 0 292 104" fill="none" xmlns="http://www.w3.org/2000/svg">
<path d="M78.7714 5.47901C77.9605 11.1604 73.6786 16.8653 71.1043 21.824C65.111 33.3686 57.5794 43.4542 49.9577 53.96C43.3841 63.0212 36.2034 71.435 28.4322 79.2941M28.4322 79.2941C22.547 85.2459 16.3232 90.8796 9.7681 96.2355C8.39111 97.3606 4.28347 102.117 2.26714 101.998C1.38225 101.946 2.9785 99.5985 2.98679 99.5876C5.45529 96.3502 8.94247 93.9926 12.1208 91.5259C17.5215 87.3345 22.9466 83.2638 28.4322 79.2941ZM28.4322 79.2941C36.904 73.1634 45.5202 67.2733 54.414 61.5508C61.6861 56.8717 68.867 51.7418 76.391 47.4774C76.9403 47.1661 81.8853 44.0626 81.65 45.5936C81.1361 48.9366 78.8461 52.1939 77.2214 55.0682C75.637 57.8709 74.4705 60.6865 73.3186 63.6839C72.3504 66.2036 70.7999 68.7622 70.7999 71.5517C70.7999 73.468 74.1162 69.5738 75.5053 68.255C81.3664 62.6904 86.9883 56.7319 92.4447 50.7741C96.0521 46.8353 99.5766 42.723 102.967 38.4833M102.967 38.4833C108.158 31.9919 113.034 25.2017 117.411 18.278C119.686 14.6796 124.595 8.60608 124.109 3.98303C123.858 1.59046 117.16 8.44565 116.802 8.91424C110.773 16.8162 106.908 24.8565 104.125 34.4014C103.787 35.5622 103.355 36.9698 102.967 38.4833ZM102.967 38.4833C102.033 42.123 101.346 46.3749 102.797 49.2782C105.648 54.9861 119.481 43.0719 122.033 41.2165C126.75 37.7883 131.954 33.2221 137.506 31.2155C140.957 29.968 141.43 30.4665 141.796 33.9859C142.301 38.834 141.604 43.5377 141.547 48.3639C141.543 48.7017 141.236 51.3249 141.685 51.5498C143.418 52.417 147.764 49.4086 149.02 48.641C158.589 42.7937 166.964 35.1144 176.311 28.9161C176.684 28.6694 180.906 25.2392 180.906 26.4228C180.906 26.9723 179.665 27.9188 180.214 27.9188C181.28 27.9188 182.388 27.1808 183.425 26.9215C184.394 26.679 185.577 26.1557 186.608 26.4505C187.013 26.5664 188.542 30.6833 189.182 31.4371C194.236 37.3885 205.719 36.5916 209.305 29.4148M253.865 2C253.693 3.63624 252.476 5.13426 251.727 6.54024C250.149 9.50072 248.748 12.5002 246.908 15.3149C241.932 22.9266 237.806 31.1244 232.383 38.416C227.052 45.5843 221.369 52.4556 215.696 59.3529C214.567 60.7249 213.413 62.1513 212.226 63.5885M212.226 63.5885C208.504 68.0971 204.467 72.7112 199.925 76.0789L199.9 76.0973C199.469 76.4172 196.489 78.6319 195.952 77.9609C194.81 76.532 204.613 69.0797 212.226 63.5885ZM212.226 63.5885C216.353 60.6118 219.837 58.2114 220.584 57.6592C228.122 52.092 235.626 46.5026 243.383 41.239C243.556 41.1214 250.434 36.3345 250.434 37.381C250.434 39.0516 246.949 42.3004 246.062 43.6856C244.61 45.9535 242.978 48.4176 242.443 51.0958C242.281 51.9063 241.495 53.1461 242.701 53.4247C243.942 53.7113 245.761 52.6633 246.767 52.1074C250.341 50.1339 253.444 47.2413 256.592 44.6736C260.97 41.1021 264.849 36.7109 269.425 33.4288C269.942 33.0581 272.51 31.0315 272.88 32.6996C274.225 38.7596 286.781 33.8212 289.826 32.4879" stroke="black" stroke-width="3" stroke-linecap="round"/>
</svg>
