<svg width="323" height="159" viewBox="0 0 323 159" fill="none" xmlns="http://www.w3.org/2000/svg">
<path d="M157.92 67.2672C158.624 67.8873 160.157 67.7219 160.778 66.9778C159.329 67.1431 159.121 67.1018 158.169 66.771C158.044 66.7297 157.837 66.523 157.713 66.7297C157.589 66.9364 157.755 67.1018 157.92 67.2672ZM158.831 57.4686C159.08 57.5513 159.287 57.3859 159.37 57.1792C159.618 56.5176 160.116 56.1455 160.82 56.0215C161.068 55.9802 161.275 55.7734 161.234 55.484C161.192 55.1533 160.944 55.0706 160.654 55.0293C159.701 54.9052 158.542 55.9388 158.5 56.8897C158.5 57.1378 158.583 57.3859 158.831 57.4686ZM114.014 36.5897C115.795 36.0522 117.825 36.4657 119.274 37.6646C119.73 38.0368 120.268 37.3752 119.854 37.0031C118.156 35.5974 115.836 35.1426 113.724 35.7628C113.185 35.9282 113.475 36.7551 114.014 36.5897ZM143.091 64.1663C143.671 65.7374 144.458 67.2672 144.748 68.9209C144.914 69.8718 145.287 70.8228 145.701 71.6497C145.991 72.1871 146.157 72.6833 146.198 73.3034C146.239 74.1717 146.654 74.5024 147.524 74.5024C148.393 74.5024 149.263 74.4197 150.05 74.1717C151.748 73.5928 153.405 72.9313 155.186 72.5179C155.683 72.3939 156.056 72.3525 156.512 72.5592C159.66 73.8822 162.808 73.0967 164.879 70.4093C165.003 70.2439 165.127 70.1199 165.293 70.0372C166.287 69.5824 167.281 69.1276 168.234 68.5902C169.021 68.1354 169.104 67.4739 168.441 66.8951C167.778 66.3162 167.406 65.572 167.116 64.7452C166.66 63.2981 166.577 61.7684 166.329 60.28C165.625 55.9388 164.962 51.5563 162.559 47.7113C161.731 46.3883 160.944 45.0653 159.494 44.3624C156.305 42.8327 150.837 43.4115 148.269 46.8844C148.103 47.0911 147.979 47.2152 147.648 47.1738C146.405 47.0085 145.37 47.4632 144.458 48.3315C142.222 50.44 141.352 53.0861 141.145 55.9802C141.186 56.4763 141.186 56.8897 141.269 57.3032C141.642 59.6598 142.304 61.9337 143.091 64.1663ZM148.683 63.6289C149.263 63.2154 149.47 62.6366 149.595 61.9751C149.885 60.404 150.382 58.9156 150.589 57.3445C150.837 55.4427 151.21 53.5409 151.127 51.5977C151.086 51.1842 151.251 50.9775 151.624 50.9775C153.53 50.9362 155.394 50.5227 157.299 50.4814C157.796 50.5227 158.334 50.5227 158.831 50.5641C160.737 50.7294 161.69 52.0111 162.477 53.5822C163.885 56.5176 164.879 59.5771 165.335 62.802C165.707 65.324 165.666 67.7633 164.092 69.9545C162.849 71.7323 161.027 72.2285 159.08 71.9804C155.683 71.567 153.364 69.4998 151.666 66.6057C151.624 66.523 151.541 66.3989 151.541 66.2749C151.5 65.6134 151.086 65.6134 150.63 65.7788C150.257 65.9028 149.926 66.0682 149.512 66.0268C148.89 65.9855 148.393 65.7374 148.145 65.1173C147.938 64.4557 148.186 64.001 148.683 63.6289ZM152.246 58.957C152.535 59.1637 152.784 58.9983 152.95 58.7916C153.447 58.2541 154.027 57.9234 154.814 58.1714C155.062 58.2541 155.311 58.1301 155.394 57.882C155.476 57.5926 155.352 57.4272 155.186 57.2618C154.855 56.9724 154.482 56.9724 154.109 56.9311C153.364 56.9311 152.411 57.5513 152.121 58.2128C151.997 58.4608 151.956 58.7502 152.246 58.957ZM182.441 37.7887C183.021 37.5406 183.684 37.2512 184.347 37.2099C184.844 37.2099 185.424 37.3752 185.755 37.7887C185.838 37.9127 186.004 37.9954 186.169 37.9127C186.294 37.83 186.376 37.6233 186.294 37.4993C185.879 36.9204 185.217 36.631 184.513 36.631C183.684 36.631 182.939 36.9618 182.193 37.2925C182.069 37.3752 182.027 37.582 182.069 37.706C182.152 37.83 182.317 37.83 182.441 37.7887ZM113.475 38.9877C115.174 38.2021 117.369 38.6569 118.57 40.1453C118.736 40.352 118.984 40.3934 119.191 40.2693C119.357 40.1453 119.44 39.8559 119.316 39.6492C117.907 37.8714 115.298 37.1685 113.227 38.1608C113.02 38.2435 112.854 38.4915 112.937 38.7396C112.978 38.9463 113.227 39.1117 113.475 38.9877ZM154.855 60.6107C154.896 61.0242 155.062 61.4376 155.559 61.479C155.973 61.5203 156.056 61.1896 156.056 60.8175C155.973 60.4454 155.932 59.9492 155.394 59.9492C154.979 59.9906 154.814 60.28 154.855 60.6107ZM275.018 9.13709C275.68 9.50919 275.929 10.1707 276.219 10.8322C276.302 11.0389 276.384 11.3697 276.674 11.287C276.923 11.2043 276.923 10.8735 276.923 10.6255C276.923 9.75725 276.26 8.6823 275.556 8.43424C275.308 8.35155 275.059 8.3102 274.893 8.55827C274.728 8.76499 274.81 9.01305 275.018 9.13709ZM273.402 9.46784C274.272 10.1707 274.769 11.0803 275.1 12.1139C275.183 12.4446 275.308 12.734 275.432 13.0235C275.473 13.1475 275.598 13.2715 275.722 13.2302C275.887 13.1888 275.929 13.0648 275.929 12.8994C275.929 12.734 275.929 12.5687 275.929 12.4033C275.929 10.9976 275.018 9.34381 273.982 8.72365C273.734 8.55827 273.444 8.35155 273.154 8.6823C272.905 9.0544 273.195 9.30247 273.402 9.46784ZM182.69 39.4425C182.359 39.6492 182.649 40.1453 182.98 39.9386C184.181 39.1944 185.714 39.153 186.956 39.8146C187.288 39.9799 187.578 39.4838 187.246 39.3184C185.879 38.5742 184.098 38.6156 182.69 39.4425ZM275.1 46.9258C274.893 47.0911 274.728 47.2979 274.893 47.5459C275.1 47.8353 275.39 47.7113 275.639 47.5873C277.42 46.471 278.083 44.6518 278.746 42.9981C278.746 42.626 278.745 42.3779 278.497 42.2952C278.207 42.1712 278.041 42.3366 277.876 42.5846C277.751 42.7913 277.627 42.9981 277.544 43.2461C276.964 44.5691 276.302 45.8922 275.1 46.9258ZM224.525 2.81141C224.815 3.01813 224.939 2.72872 225.105 2.522C225.685 1.69512 226.389 1.03361 227.466 0.909573C227.756 0.868229 228.046 0.785541 228.005 0.413443C227.963 0.0413443 227.632 0 227.3 0C226.224 0.0413443 224.774 1.15764 224.442 2.19125C224.401 2.43931 224.277 2.68738 224.525 2.81141ZM274.023 44.9412C273.858 45.1066 273.734 45.3133 273.568 45.5201C273.444 45.6854 273.444 45.8922 273.609 46.0575C273.775 46.2229 273.941 46.2643 274.106 46.1816C274.272 46.0989 274.438 46.0162 274.603 45.8922C276.012 44.6932 277.006 43.2461 277.627 41.5097C277.71 41.3443 277.71 41.1376 277.751 41.0549C277.751 40.7241 277.71 40.5174 277.503 40.3934C277.296 40.3107 277.13 40.4347 277.006 40.6001C276.799 40.8895 276.55 41.2203 276.384 41.551C275.763 42.75 275.018 43.9076 274.023 44.9412ZM207.17 86.7817C206.839 88.6422 205.223 90.1719 203.318 90.2959C203.069 90.2959 202.862 90.5027 202.862 90.7507C202.862 90.9574 203.069 91.2055 203.318 91.2055C205.596 91.0401 207.626 89.2623 207.998 87.0297C208.04 86.7817 207.957 86.575 207.708 86.4923C207.501 86.4096 207.211 86.5336 207.17 86.7817ZM204.975 92.3218C204.436 92.4872 204.643 93.3141 205.223 93.1487C207.336 92.5699 209.034 90.8747 209.697 88.8075C209.862 88.2701 209.034 88.022 208.868 88.5595C208.247 90.3786 206.756 91.8257 204.975 92.3218ZM220.01 49.9439C220.176 50.0679 220.425 50.1093 220.632 50.1506C220.88 50.192 221.046 50.0679 221.046 49.7372C220.963 49.3651 220.673 49.117 220.383 48.8276C219.472 47.9594 218.643 47.0498 217.981 45.9748C217.856 45.7268 217.732 45.3133 217.359 45.4787C216.945 45.6441 217.07 46.0162 217.194 46.347C217.732 47.8353 218.768 48.993 220.01 49.9439ZM221.543 48.4969C221.874 48.5795 222.164 48.5382 222.206 48.1248C222.123 47.794 221.916 47.5459 221.626 47.3392C220.383 46.3056 219.099 45.272 218.229 43.8663C218.105 43.6596 217.898 43.4529 217.608 43.6182C217.401 43.7423 217.401 43.9903 217.442 44.197C217.691 45.2307 220.507 48.2488 221.543 48.4969ZM160.654 58.3781C160.24 58.2954 160.116 58.6675 160.116 58.9983C160.116 59.5771 160.53 60.28 160.903 60.2386C161.275 60.1973 161.358 59.9492 161.4 59.5771C161.275 59.1637 161.4 58.5022 160.654 58.3781ZM71.8058 66.647C72.3857 67.1018 73.0484 67.3912 73.8768 67.4325C74.0425 67.4325 74.291 67.3912 74.4981 67.3498C74.7467 67.2672 75.0366 67.1845 74.9538 66.8124C74.8709 66.523 74.581 66.523 74.3325 66.5643C73.504 66.771 72.7999 66.4816 72.1371 66.0682C71.93 65.9441 71.7229 65.6961 71.5158 65.9855C71.3501 66.2749 71.5573 66.4816 71.8058 66.647ZM43.3081 78.2234C44.5921 78.5955 45.8762 79.0503 47.1188 79.6291C47.3673 79.7531 47.6987 79.7118 47.823 79.4224C47.9472 79.2157 47.9058 78.8436 47.6159 78.7195C46.2904 78.1407 44.9235 77.6446 43.5566 77.2311C42.9353 77.0244 42.6453 78.0167 43.3081 78.2234ZM39.7044 81.7377C41.6927 82.1925 43.7223 82.4405 45.7519 82.5232C46.4147 82.5646 46.4147 81.4896 45.7519 81.4896C43.8051 81.4069 41.8998 81.1588 39.9944 80.7454C39.3317 80.58 39.0417 81.5723 39.7044 81.7377ZM71.8472 56.6417C71.7644 56.3109 71.5572 56.1455 71.2259 55.9802C70.3146 55.5254 68.8235 55.8975 68.1193 56.7657C67.9536 56.9724 67.7465 57.2618 67.9122 57.4686C68.1607 57.758 68.3678 57.3859 68.5749 57.2618C69.4448 56.7244 70.3146 56.1869 71.3916 56.8897C71.5987 57.0551 71.7644 56.9311 71.8472 56.6417ZM76.6935 58.006C76.3207 57.9647 76.2793 58.2955 76.3207 58.5849C76.3207 58.8743 76.3207 59.2877 76.7349 59.3291C77.1077 59.3291 77.0248 58.957 77.0663 58.7502C77.0663 58.4195 77.1077 58.0474 76.6935 58.006ZM70.5631 59.3291C70.5217 59.6185 70.4803 60.0733 70.8531 60.0319C71.433 60.0319 71.2259 59.4117 71.3501 59.1223C71.3501 58.8329 71.4744 58.4195 71.1016 58.4195C70.5631 58.4608 70.6046 58.957 70.5631 59.3291ZM113.144 59.9492C114.18 59.4531 115.256 58.9156 116.292 58.3368C116.623 58.1714 117.245 57.9233 117.079 57.5513C116.872 57.1378 116.292 57.4686 115.919 57.5926C115.008 57.882 114.138 58.3781 113.185 58.8329C113.144 58.1714 113.103 57.6339 113.061 57.0965C113.02 56.8071 112.895 56.559 112.564 56.6003C112.274 56.6003 112.191 56.8897 112.191 57.1378C112.191 57.882 112.15 58.5849 112.15 59.3291C112.108 59.9492 112.564 60.2386 113.144 59.9492ZM254.141 80.1252C253.81 80.2079 253.603 80.3733 253.603 80.7041C253.603 81.0348 253.81 81.2002 254.141 81.2002C254.473 81.2002 254.68 80.9521 254.68 80.6214C254.68 80.332 254.473 80.1666 254.141 80.1252ZM321.782 86.7817C320.664 85.0865 318.924 84.0116 316.894 84.0529C316.314 84.0529 316.314 84.9625 316.894 84.9212C320.457 84.7971 322.238 88.4354 322.072 91.5363C321.906 94.4717 320.581 97.3658 319.338 99.9705C317.143 104.518 314.243 108.735 310.805 112.456C303.805 120.064 294.817 125.769 285.166 129.449C281.521 130.813 277.834 131.93 274.065 132.798C273.071 128.498 271.87 124.198 271 119.857C269.716 113.49 268.307 107.164 266.94 100.839C266.816 100.343 266.775 99.9705 267.479 100.012C267.935 100.053 268.059 99.7638 268.059 99.3917C268.017 99.0609 267.976 98.7302 267.893 98.4408C267.313 96.2909 266.733 94.1823 266.195 92.0324C265.118 87.8153 264.662 83.4328 263.544 79.2157C263.42 78.7195 263.751 78.7609 264 78.6368C266.112 77.4792 268.39 76.5283 269.84 74.4197C271.207 72.4765 271.248 72.4765 269.591 70.7814C269.26 70.4507 269.177 70.2439 269.509 69.8718C270.71 68.5075 271.414 66.8537 271.994 65.1173C273.154 61.603 273.444 58.0474 273.278 54.3677C273.278 54.037 273.112 53.6235 273.485 53.4168C274.355 52.8793 274.976 52.0525 275.763 51.4323C277.876 49.6545 279.035 47.2979 279.947 44.8172C279.988 44.6518 280.03 44.4865 280.03 44.3211C280.03 44.073 280.03 43.7836 279.781 43.7009C279.491 43.6182 279.408 43.9076 279.284 44.1144C278.745 45.1066 278.207 46.0989 277.669 47.0498C276.467 49.117 274.769 50.7294 272.947 52.2178C272.491 52.5899 272.242 52.838 272.242 53.4168C272.284 55.9388 272.201 58.5022 271.787 60.9828C271.331 63.8769 270.544 66.6883 268.763 69.1276C268.473 69.5411 268.266 69.6651 267.893 69.2517C267.769 69.1277 267.603 69.0036 267.479 68.8796C266.278 67.7633 266.319 67.7633 267.148 66.3989C268.639 63.9183 269.219 61.1482 269.757 58.3368C270.337 55.3187 269.799 52.2592 269.674 49.2411C269.633 47.7113 269.964 46.3883 270.751 44.9412C270.917 45.4374 270.751 45.7268 270.751 46.0575C270.751 46.471 270.751 46.8431 271.207 47.0085C271.621 47.1325 271.911 46.8844 272.035 46.5537C272.739 44.9412 274.106 43.825 275.266 42.5846C275.639 42.1712 276.012 41.7577 276.343 41.0135C274.065 41.551 273.278 43.4942 271.87 44.6932C271.662 44.2384 271.787 43.5355 271.165 43.4529C270.544 43.3702 270.71 43.0394 270.793 42.7087C271.373 40.104 272.035 37.4993 272.449 34.8532C273.029 31.2149 273.444 27.494 273.941 23.8557C274.313 21.1683 274.396 18.4809 274.521 15.7935C274.562 15.2974 274.521 14.7599 273.941 14.5532C273.402 14.3465 273.278 14.9253 272.947 15.2147C272.242 13.7676 272.16 12.3206 272.325 10.8322C272.491 9.50919 272.201 9.13709 270.875 9.26112C269.674 9.38515 268.514 9.63322 267.313 9.67456C264.662 9.7986 262.094 9.30246 259.485 9.13709C256.337 8.93037 253.147 8.43423 250.124 9.75725C250.041 9.7986 249.916 9.7986 249.834 9.75725C247.887 9.26112 246.023 8.6823 244.2 7.85542C241.798 6.78046 239.395 5.58148 236.745 5.16804C234.094 4.71325 231.567 3.84502 228.999 3.18351C227.963 2.93544 227.59 3.10082 227.425 4.17577C227.135 5.99492 226.886 7.77273 226.596 9.59187C225.727 14.8839 224.898 20.176 223.987 25.4681C223.283 29.3958 222.496 33.2822 221.75 37.2099C221.502 38.5742 221.709 38.9463 223.076 39.2771C225.892 39.9386 228.75 40.4347 231.608 40.9722C233.348 41.3029 235.088 41.7991 236.827 41.9231C239.354 42.1298 241.798 42.9154 244.325 43.1634C244.697 43.2048 244.987 43.3702 244.946 43.8249C244.904 44.4038 245.277 44.8586 245.733 45.1893C246.686 45.8508 247.721 46.1816 248.881 46.2229C252.692 46.3883 256.461 45.9335 260.272 45.9335C263.171 45.9335 266.112 45.9335 269.094 45.9335C268.887 46.8844 268.597 47.794 268.68 48.7036C268.804 50.0266 268.804 51.3496 268.846 52.6726C268.97 56.3936 268.39 59.9906 267.148 63.5048C266.775 64.6211 266.278 65.6547 265.532 66.771C265.366 66.5643 265.325 66.3989 265.201 66.2749C264.497 65.5307 264.124 65.572 263.544 66.3989C263.378 66.6883 263.213 66.9778 263.005 67.2258C261.639 69.045 260.313 70.9882 257.952 71.567C256.502 71.8977 255.633 72.7246 254.846 73.8822C254.307 74.7091 253.644 75.4533 253.189 76.3216C252.94 76.8177 252.65 76.8177 252.236 76.5283C251.035 75.5774 249.834 74.6264 248.632 73.6755C247.845 73.0554 247.224 72.2698 246.106 72.1871C244.532 72.1044 243.082 71.4843 241.715 70.7401C240.514 70.0786 239.561 69.169 238.816 68.0527C238.608 67.7633 238.526 67.4325 238.111 67.4739C237.656 67.4739 237.532 67.846 237.449 68.1767C237.324 68.6315 237.117 68.6729 236.745 68.4248C236.165 68.0527 235.626 67.6393 235.129 67.1845C231.857 64.0836 230.034 60.2386 229.247 55.8561C228.999 54.5331 228.75 53.2514 229.082 51.8871C229.33 50.7708 228.999 49.6545 228.419 48.6622C227.632 47.4219 226.803 46.2643 225.851 45.1893C225.147 44.3624 224.194 43.9903 223.158 43.7423C222.454 43.5769 222.04 43.9903 222.123 44.6932C222.123 44.8172 222.289 44.9826 222.081 45.148C221.253 44.4451 220.383 43.7836 219.679 42.9567C219.43 42.6673 219.141 42.3779 218.768 42.7087C218.436 42.9981 218.643 43.3288 218.851 43.5769C220.3 45.1066 221.709 46.6777 223.863 47.1738C224.153 47.2565 224.442 47.4632 224.65 47.0911C224.857 46.719 224.65 46.471 224.401 46.2229C224.07 45.8922 223.738 45.5201 223.407 45.1893C224.194 45.272 224.774 45.6854 225.229 46.2229C225.809 46.9258 226.306 47.67 226.886 48.3728C227.963 49.6545 228.336 51.1842 228.129 52.7553C227.922 54.4918 228.17 56.1455 228.585 57.758C229.869 62.5539 231.94 66.8537 236.455 69.5411C236.827 69.7478 236.703 69.9545 236.579 70.2026C236.206 70.9881 235.75 71.7323 235.46 72.5592C235.212 73.2621 234.922 73.1794 234.425 72.8073C231.153 70.368 228.585 67.3912 226.969 63.6289C225.934 61.2309 224.815 58.8329 224.815 56.1455C224.815 55.6908 224.442 55.5667 224.153 55.4013C222.454 54.3264 220.963 53.0447 219.679 51.515C218.892 50.6054 218.229 49.6131 217.608 48.5795C217.484 48.3315 217.318 48.0834 216.987 48.2074C216.697 48.3315 216.78 48.6209 216.821 48.8689C216.904 49.6131 217.235 50.2333 217.649 50.8121C219.099 53.0861 220.922 54.9466 223.2 56.435C223.531 56.6417 223.821 56.8484 223.904 57.2618C224.525 60.3627 225.519 63.2568 226.969 66.1095C228.667 69.4171 231.194 71.8977 234.094 74.089C234.508 74.4197 234.591 74.5438 234.342 75.0399C233.804 76.0322 233.886 76.4043 234.756 77.1484C235.046 77.3965 235.378 77.6032 235.668 77.81C236.993 78.5955 238.36 79.2983 239.81 79.7531C240.307 79.9185 240.472 80.1666 240.514 80.6627C240.68 83.102 240.597 85.5827 240.597 88.022C240.597 92.1564 240.721 96.2495 241.011 100.384C241.052 100.839 241.011 101.459 241.549 101.583C242.254 101.748 242.088 102.162 242.005 102.617C240.265 111.051 238.111 119.402 236.745 127.919C236.372 130.317 235.999 132.715 235.668 135.113C227.176 134.534 218.768 133.501 210.566 132.302C200.045 130.772 189.566 128.87 179.128 126.886C178.879 125.439 178.589 123.992 178.217 122.586C176.932 117.749 175.731 112.911 174.696 108.033C174.116 105.221 173.287 102.41 172.79 99.557C172.666 98.8955 172.79 98.3581 173.453 98.11C174.364 97.7379 175.276 97.3245 176.27 97.1177C178.465 96.6216 180.619 96.1255 182.731 95.4226C183.021 95.2986 183.353 95.2159 183.311 94.8851C183.27 94.4304 183.518 94.389 183.85 94.3063C186.956 93.6448 189.98 92.6526 192.962 91.7016C193.915 91.4122 194.826 90.9574 195.738 90.5853C196.235 90.3786 196.649 89.9652 196.483 89.469C196.235 88.8489 196.525 88.6422 196.98 88.3528C197.063 88.3114 197.187 88.1874 197.229 88.1047C197.519 87.1951 198.347 87.1124 199.051 86.7817C200.294 86.2442 201.495 85.5413 202.696 84.9212C203.566 84.4664 204.436 84.0116 205.472 83.8049C206.839 83.5568 207.46 82.7713 207.501 81.3656C207.543 80.8281 207.626 80.332 207.833 79.7945C208.164 78.9676 208.04 78.3061 207.377 77.81C206.88 77.4379 206.797 77.0658 206.839 76.5283C206.921 75.3706 206.631 74.337 205.596 73.6755C205.347 73.5101 205.099 73.4275 204.85 73.6755C204.602 73.9236 204.726 74.1717 204.933 74.3784C205.637 75.0399 205.762 75.9081 205.637 76.8177C205.554 77.5205 205.762 78.0994 206.383 78.5128C206.631 78.6782 206.88 78.9263 206.756 79.2157C206.424 79.9599 206.424 80.7867 206.3 81.5723C206.176 82.3578 205.554 82.6886 204.809 82.5232C204.519 82.4405 204.188 82.4405 203.856 82.3992C203.566 82.3578 203.193 82.5232 203.028 82.2338C202.862 81.9444 203.152 81.655 203.318 81.3656C203.359 81.2829 203.401 81.2415 203.442 81.2002C204.105 80.1666 203.856 79.6704 202.655 79.6291C202.572 79.6291 202.448 79.6291 202.448 79.4637C202.862 79.0089 203.525 78.7609 203.939 78.2234C204.436 77.5205 204.27 77.0244 203.401 76.859C203.069 76.8177 202.696 76.859 202.324 76.6523C202.904 76.2389 203.442 75.8668 203.939 75.4947C204.146 75.3293 204.395 75.0812 204.27 74.8332C204.022 74.3784 204.146 73.8822 204.105 73.3861C203.608 68.8796 202.821 64.4144 202.282 59.9079C201.992 57.6753 201.495 55.4427 201.329 53.1688C201.288 52.5899 200.915 52.4246 200.377 52.714C197.684 54.161 194.826 55.1119 191.968 56.0215C190.684 56.435 189.4 56.8484 188.033 57.2618C188.033 57.0138 188.158 56.9311 188.282 56.8071C190.394 54.7812 192.341 52.6726 194.164 50.3987C195.075 49.241 195.82 47.9594 196.4 46.6364C196.732 45.8508 196.525 45.4787 195.738 45.2307C195.282 45.1066 194.868 44.9412 194.412 44.7759C191.678 43.7423 188.986 42.75 186.294 41.6337C185.341 41.2203 185.01 41.3856 184.471 42.2539C184.057 42.9154 183.684 43.5769 183.228 44.2384C180.453 48.2488 177.388 51.9698 173.66 55.1533C172.335 56.2696 171.216 57.5926 170.429 59.1637C170.305 59.4117 170.098 59.7838 170.429 59.9492C170.968 60.1973 171.423 60.6521 172.086 60.7348C173.287 60.9001 174.489 60.8175 175.773 60.9828C175.317 61.2722 175.276 61.6443 175.193 62.0164C175.027 63.3395 174.944 64.6211 174.986 65.9441C175.027 70.0786 175.276 74.1717 176.063 78.2234C176.145 78.7609 176.145 78.9262 175.524 78.7609C173.867 78.3474 172.169 78.0167 170.554 77.5619C169.394 77.2311 168.275 76.7764 167.82 75.4947C167.696 75.1226 167.406 74.8745 166.95 74.9572C166.494 75.0399 166.37 75.412 166.287 75.8254C165.873 77.81 164.258 78.8849 162.269 78.5128C160.116 78.0994 158.252 77.1898 156.719 75.6187C156.263 75.1639 155.849 74.6264 155.062 74.7091C153.157 74.8745 151.376 75.3293 149.636 76.1562C147.399 77.1898 146.115 78.8849 145.577 81.2829C145.08 83.5568 145.204 85.7894 145.494 88.0633C145.867 90.7921 146.529 93.4381 148.518 95.5053C148.725 95.712 148.766 95.9188 148.683 96.1668C148.228 97.4898 148.228 98.8955 147.896 100.26C146.695 105.593 145.618 110.968 144.79 116.384C144.583 117.666 144.334 118.948 144.086 120.229C141.103 119.692 138.079 119.196 135.056 118.699C121.014 116.426 106.848 114.813 92.682 114.4C92.2264 112.787 91.7707 111.133 91.3151 109.521C90.4867 106.586 89.8654 103.567 88.8298 100.673C88.6642 100.177 88.747 99.9705 89.3269 99.9705C89.6997 99.9705 90.0725 99.8465 90.4867 99.7638C91.108 99.6397 91.2737 99.2676 91.108 98.6888C90.5281 96.8283 89.9896 95.0092 89.4512 93.1487C88.6642 90.5026 87.7943 87.8566 86.8416 85.2519C86.6759 84.8385 86.6759 84.5904 87.2144 84.5077C90.2382 84.0529 93.0134 82.854 95.7472 81.531C99.3508 79.7945 102.789 77.6859 105.564 74.7505C105.647 74.6678 105.688 74.5851 105.771 74.5438C106.972 74.089 107.676 73.014 108.712 72.3525C109.043 72.1458 109.085 71.7737 108.795 71.4429C107.884 70.4093 107.386 69.1277 106.475 68.094C106.889 67.8873 107.221 67.722 107.552 67.5152C109.25 66.4816 110.783 65.324 112.108 63.8356C112.316 63.6289 112.481 63.2981 112.771 63.6702C113.393 64.4144 114.097 64.3731 114.842 63.9183C115.091 63.7942 115.339 63.7115 115.588 63.6289C119.896 61.9337 123.706 59.5771 125.985 55.36C126.233 54.9052 126.233 54.6158 125.943 54.2437C125.405 53.4995 124.866 52.7967 124.328 52.0938C122.339 49.4891 120.186 47.0498 118.612 44.1557C118.156 43.3288 117.535 42.5846 116.913 41.8404C116.458 41.2616 116.085 41.3443 115.795 42.0058C115.422 42.9567 114.842 43.7423 114.221 44.5278C111.404 48.1248 108.049 51.0602 103.949 53.0447C103.203 53.4168 103.162 53.7062 103.783 54.2851C104.487 54.9879 105.108 55.7734 105.73 56.559C106.807 57.9234 106.807 57.9234 105.854 59.4117C105.067 60.6934 104.321 61.9751 103.534 63.2154C103.451 63.3808 103.41 63.8769 102.996 63.4635C102.499 62.9674 102.126 63.1741 101.795 63.6289C99.0608 66.9777 95.6643 69.4998 91.9364 71.567C88.3328 73.5928 84.5635 75.0399 80.2557 74.0476C79.6344 73.8822 79.0545 74.3784 78.9716 74.9985C78.8474 75.8254 78.4746 76.5696 78.0604 77.2725C76.3207 80.1666 72.0957 80.456 69.9004 77.8926C69.3205 77.1898 68.782 76.4869 68.3678 75.66C68.1193 75.1226 67.7465 74.9572 67.1666 74.8332C64.9713 74.4611 62.7346 74.5438 60.5392 74.7505C57.2256 74.9985 54.616 76.4869 52.7107 79.1743C50.8053 81.8617 49.7698 84.9212 49.1484 88.146C48.7342 90.2959 48.6514 92.4872 48.8171 94.6784C48.8585 95.0919 48.8585 95.5053 48.32 95.6707C48.0715 95.7534 48.0301 96.0428 47.9887 96.2909C47.9058 97.5725 47.7815 98.8129 47.6987 100.095C47.6573 100.756 47.8644 101.087 48.5271 101.004C48.9828 100.963 49.1484 101.128 49.107 101.583C49.0242 102.327 49.0656 103.071 49.1484 103.857C49.2727 104.766 49.397 105.676 49.5212 106.586C49.6455 107.33 49.894 108.074 50.3911 108.653C51.0124 109.356 52.0065 109.521 52.6278 110.307C52.7521 110.472 53.0834 110.555 53.2077 110.803C53.332 110.968 53.4977 111.009 53.7048 111.009C54.4918 110.885 54.906 110.513 54.906 109.686C54.906 108.322 54.8646 106.958 54.8646 105.593C54.8646 105.097 54.8231 104.601 54.8231 104.146C54.8231 103.857 54.7817 103.567 54.4503 103.526C54.119 103.485 53.9947 103.774 53.9533 104.022C53.829 104.518 53.829 104.973 53.829 105.469C53.8704 106.875 53.8704 108.239 53.9119 109.645C53.4977 108.363 53.332 107.04 53.1663 105.717C53.1249 105.387 53.2491 104.766 52.7107 104.849C52.255 104.89 52.4207 105.428 52.4207 105.759C52.4207 106.792 52.5036 107.826 52.7107 108.86C52.6278 108.735 52.545 108.611 52.5036 108.487C51.9651 107.495 51.9237 106.379 51.758 105.304C51.7166 105.056 51.6751 104.725 51.3023 104.766C50.971 104.808 50.971 105.097 50.971 105.345C50.9296 106.213 50.9296 107.04 51.2195 108.074C50.8053 107.619 50.6396 107.247 50.5568 106.875C50.184 105.097 49.9355 103.278 49.8112 101.459C49.7698 101.045 49.9769 101.045 50.3082 101.045C51.6337 101.087 52.9592 101.169 54.2432 101.211C54.5746 101.211 54.7817 101.335 54.906 101.666C55.4444 103.113 55.8587 104.601 55.3616 106.131C55.2788 106.42 55.1131 106.792 55.5273 106.916C55.9415 107.04 56.1486 106.71 56.2729 106.379C56.48 105.676 56.6042 104.973 56.48 104.229C56.3557 103.237 56.0658 102.286 55.693 101.294C56.3971 101.252 57.0599 101.252 57.0599 100.26C56.977 97.7379 57.1841 95.2159 57.5155 92.6939C57.6398 91.7843 57.8054 90.9161 57.9711 90.0479C58.1368 89.1796 58.3439 88.3528 58.5924 87.3192C58.7167 87.6086 58.7581 87.6912 58.7581 87.7739C59.4209 92.2804 59.8351 96.8283 59.4623 101.376C59.3795 102.493 59.628 102.782 60.7463 102.617C61.5333 102.534 61.4505 102.823 61.2848 103.361C60.6635 105.759 60.0008 108.157 59.5037 110.596C59.0895 112.498 58.7167 114.358 58.3025 116.26C40.1601 118.948 22.3904 124.57 6.8161 134.369C4.53794 135.816 2.34263 137.346 0.188729 138.917C-0.266903 139.248 0.188728 140.033 0.64436 139.661C17.5027 127.216 37.5505 120.229 58.1368 117.128C57.8469 118.369 57.5983 119.609 57.3084 120.849C56.6457 123.909 55.9001 126.968 55.3202 130.069C54.6575 133.418 53.9533 136.767 53.0006 140.033C52.6692 141.232 52.3793 142.472 52.0479 143.713C51.9651 144.044 51.8822 144.54 52.3379 144.54C53.042 144.498 53.5805 144.912 54.2432 144.994C54.906 145.077 54.8231 145.325 54.5746 145.78C53.9119 147.02 53.2077 148.261 52.6278 149.542C51.758 151.444 52.0893 153.305 53.5805 154.628C56.1486 156.902 59.0895 158.473 62.5275 158.969C63.3145 159.093 63.9772 158.845 64.4742 158.266C65.634 156.943 65.5098 155.537 64.1429 154.38C63.0245 153.429 61.7819 152.767 60.4978 152.106C60.0008 151.858 59.628 151.485 59.628 150.865C59.628 149.666 59.8351 148.55 60.4978 147.516C60.6635 147.268 60.8292 146.979 60.5392 146.731C60.2079 146.483 59.9593 146.731 59.7522 146.979C59.2966 147.558 59.1309 148.302 58.9238 149.005C58.2611 151.072 58.7996 152.271 60.7463 153.263C61.8233 153.801 62.8588 154.38 63.7287 155.248C64.2257 155.744 64.5571 156.281 64.1843 157.026C63.7701 157.852 63.273 158.059 62.4032 157.894C59.5866 157.315 57.0599 156.033 54.8231 154.256C53.2077 152.974 52.9592 151.61 53.8704 149.708C54.4918 148.426 55.1545 147.144 55.7758 145.821C55.9415 145.491 56.1486 145.449 56.48 145.491C57.9297 145.697 59.2966 146.069 60.6635 146.441C61.989 146.814 63.3145 147.144 64.5157 147.806C65.4269 148.302 65.6755 148.261 66.2139 147.351C66.9595 145.987 67.7051 144.622 68.4921 143.258C68.9063 142.514 68.8649 142.348 68.0365 141.976C66.7524 141.439 65.5098 140.901 64.2257 140.323C64.0186 140.24 63.6044 140.157 63.7701 139.826C63.8943 139.496 64.2257 139.62 64.4742 139.702C65.3855 139.992 66.2968 140.24 67.1252 140.695C68.0365 141.191 68.1607 141.191 68.4921 140.24C69.6519 137.098 70.7702 133.956 71.9715 130.855C73.1312 127.795 74.2496 124.736 75.078 121.594C75.6165 119.444 76.3207 117.376 77.1077 115.309C77.2734 115.309 77.439 115.309 77.6047 115.268C77.3148 116.301 77.0663 117.418 76.6106 118.369C75.7408 120.147 76.155 121.635 77.1077 123.206C78.7645 125.976 80.3799 128.746 81.7883 131.64C83.7765 135.816 86.3446 139.661 88.2499 143.837C88.4985 144.333 88.8298 144.498 89.3683 144.292C89.5754 144.209 89.7825 144.126 89.9896 144.044C90.4867 143.795 90.7766 143.878 90.9009 144.498C91.2323 145.904 91.6465 147.268 92.0607 148.674C92.3092 149.584 92.9305 150.162 93.8004 150.493C94.5045 150.741 95.2087 150.989 95.9128 151.031C99.6822 151.196 103.037 150.121 105.978 147.764C106.765 147.144 107.469 146.359 107.097 145.284C106.724 144.168 105.688 144.085 104.653 144.085C102.913 144.085 101.132 144.126 99.3922 144.498C98.4395 144.705 97.5283 144.705 97.0726 143.589C96.9898 143.423 96.8241 143.258 96.617 143.341C96.4099 143.423 96.3685 143.63 96.327 143.837C96.2028 144.664 97.0312 145.573 98.0253 145.697C98.7295 145.78 99.3922 145.656 100.055 145.532C101.753 145.201 103.451 145.16 105.15 145.242C105.481 145.242 105.854 145.325 106.02 145.697C106.144 146.028 105.895 146.317 105.688 146.524C105.523 146.731 105.315 146.896 105.108 147.103C104.404 147.723 103.576 148.178 102.747 148.55C100.138 149.79 97.4454 150.411 94.5874 149.832C93.7175 149.666 93.0962 149.212 92.8477 148.261C92.5163 146.979 92.185 145.697 91.7707 144.457C91.5636 143.795 91.6465 143.589 92.3506 143.382C95.1258 142.679 97.9425 142.018 100.676 141.067C101.298 140.86 101.546 140.529 101.339 139.868C101.049 138.958 100.801 138.007 100.511 137.056C100.179 135.981 100.138 135.981 99.0194 136.353C97.8596 136.767 96.6584 137.139 95.6229 137.842C95.4158 137.966 95.0844 138.173 94.9187 137.842C94.7531 137.511 95.0844 137.387 95.3329 137.263C96.2028 136.767 97.0726 136.229 98.0253 135.94C98.4809 135.816 98.6466 135.568 98.4395 135.072C98.1496 134.204 98.0667 133.335 97.8182 132.467C96.1199 126.72 94.4631 120.973 92.8477 115.227C106.558 115.599 120.268 117.17 133.855 119.32C137.168 119.857 140.523 120.436 143.837 121.015C143.174 124.157 142.429 127.299 141.932 130.483C141.31 134.328 140.358 138.173 139.654 142.018C139.446 143.175 139.778 143.506 140.979 143.506C141.973 143.506 142.967 143.547 143.961 143.547C144.417 143.547 144.541 143.713 144.5 144.209C144.293 145.78 144.044 147.351 144.086 148.922C144.127 151.361 145.163 152.85 147.482 153.635C149.677 154.38 151.914 154.793 154.192 154.958C155.891 155.082 157.506 154.752 158.956 153.801C160.198 152.974 160.613 151.444 159.867 150.245C159.287 149.294 158.334 148.922 157.299 148.715C155.808 148.426 154.317 148.178 152.867 147.806C152.163 147.64 151.5 147.31 151.624 146.4C151.666 146.069 151.459 145.821 151.127 145.78C150.796 145.739 150.589 145.904 150.423 146.193C150.216 146.69 150.299 147.186 150.547 147.682C151.044 148.674 151.956 149.046 152.95 149.294C154.275 149.584 155.601 149.79 156.926 150.038C157.423 150.121 157.92 150.245 158.334 150.576C159.163 151.155 159.121 152.147 158.293 152.684C157.257 153.305 156.181 153.677 154.979 153.635C152.701 153.553 150.464 153.139 148.311 152.436C146.239 151.775 145.535 150.7 145.66 148.591C145.742 147.186 145.908 145.821 145.991 144.457C146.032 143.878 146.198 143.754 146.737 143.795C148.352 143.961 149.926 144.085 151.541 144.25C151.956 144.292 152.08 144.168 152.121 143.754C152.246 141.48 152.287 139.206 152.163 136.974C152.038 134.286 151.914 131.558 151.956 128.87C151.956 128.291 151.956 127.713 152.204 127.092C152.494 127.423 152.453 127.713 152.453 128.043C152.577 130.193 152.701 132.384 152.825 134.534C152.991 137.594 153.198 140.653 152.908 143.754C152.867 144.25 153.033 144.333 153.447 144.333C155.145 144.333 156.802 144.292 158.5 144.333C159.204 144.374 159.287 144.126 159.246 143.506C158.749 139.206 158.293 134.948 157.879 130.648C157.465 126.348 157.133 122.007 157.133 117.666C157.133 117.335 157.092 117.004 157.299 116.674C157.506 117.004 157.506 117.335 157.547 117.625C158.127 121.47 158.293 125.397 158.707 129.242C159.204 134.08 159.743 138.875 160.198 143.713C160.24 144.168 160.405 144.333 160.903 144.333C162.435 144.333 163.926 144.25 165.417 144.126C166.039 144.085 166.246 144.25 166.287 144.829C166.412 145.863 166.577 146.855 166.867 147.847C167.364 149.666 168.565 150.865 170.347 151.485C173.495 152.602 176.643 152.436 179.791 151.692C180.495 151.527 181.24 151.361 181.862 150.948C182.69 150.411 182.98 149.625 182.897 148.674C182.856 147.806 182.234 147.392 181.489 147.062C180.95 146.855 180.412 146.772 179.832 146.731C178.341 146.607 176.85 146.731 175.4 146.193C174.654 145.904 174.074 145.449 174.116 144.54C174.116 144.085 173.909 143.754 173.453 143.754C172.997 143.795 172.79 144.168 172.79 144.581C172.749 145.367 172.956 146.069 173.536 146.648C174.406 147.516 175.483 147.847 176.643 147.971C177.968 148.095 179.335 148.137 180.66 148.261C181.033 148.302 181.53 148.385 181.53 148.963C181.53 149.501 181.199 149.832 180.702 149.956C177.43 150.907 174.116 151.32 170.802 150.121C169.642 149.708 168.773 148.963 168.4 147.764C168.151 146.979 167.986 146.235 167.82 145.408C167.53 143.961 167.53 143.919 169.062 143.878C169.601 143.878 169.725 143.671 169.642 143.175C169.435 142.059 169.27 140.984 169.021 139.868C167.82 134.534 166.867 129.16 166.784 123.661C166.784 123.206 166.784 122.751 166.784 122.296C166.867 122.296 166.909 122.296 166.991 122.296C167.074 122.751 167.157 123.206 167.24 123.661C167.737 126.927 168.11 130.193 168.69 133.418C169.27 136.767 170.222 140.033 170.636 143.382C170.678 143.795 170.926 143.754 171.216 143.713C173.329 143.589 175.4 143.423 177.471 143.01C179.169 142.679 179.128 142.679 178.714 141.067C176.643 133.335 174.489 125.604 173.163 117.666C172.956 116.301 172.666 114.978 172.749 113.573C172.873 114.069 173.039 114.524 173.163 115.02C174.116 119.03 175.027 123.082 176.063 127.092C177.305 132.012 178.631 136.891 179.915 141.77C179.998 142.018 179.998 142.39 180.453 142.266C181.282 142.1 182.069 141.976 182.897 141.77C183.518 141.604 183.684 141.149 183.394 140.571C181.82 137.511 180.95 134.204 180.08 130.937C179.791 129.862 179.583 128.787 179.376 127.671C190.311 129.738 201.247 131.723 212.265 133.253C219.886 134.328 227.756 135.279 235.626 135.816C235.378 137.759 235.088 139.744 234.839 141.687C234.756 142.39 235.088 142.762 235.709 142.927C235.958 143.01 236.247 143.01 236.537 143.051C236.91 143.051 236.952 143.258 236.952 143.589C236.786 145.077 236.662 146.566 236.537 148.054C236.455 149.005 236.662 149.832 237.2 150.617C238.401 152.23 239.603 153.883 241.052 155.289C241.674 155.909 242.336 156.488 243.123 156.902C244.739 157.811 246.52 157.522 247.845 156.199C248.798 155.248 248.922 153.057 248.177 151.651C247.555 150.493 246.603 149.625 245.691 148.715C244.739 147.764 244.159 146.772 244.2 145.408C244.2 144.87 244.2 144.333 244.2 143.713C244.946 144.002 245.567 144.374 246.313 144.416C246.727 144.416 246.934 144.333 247.058 143.919C247.348 142.927 247.721 141.976 248.135 141.025C248.342 140.529 248.218 140.323 247.721 140.24C246.437 140.033 245.153 139.868 243.828 139.661C243.455 139.62 243.123 139.578 242.751 139.413C242.999 139.082 243.289 139.165 243.579 139.165C244.656 139.248 245.691 139.289 246.768 139.454C247.39 139.537 247.68 139.413 247.845 138.751C248.052 137.925 248.26 137.139 248.467 136.312C252.816 136.312 257.124 136.105 261.431 135.692C262.053 137.552 262.633 139.454 263.171 141.356C263.627 143.01 263.792 143.093 265.449 142.596C266.071 142.431 266.195 142.596 266.278 143.134C266.443 144.416 266.609 145.697 266.858 146.938C267.23 148.839 268.266 149.749 270.171 150.08C271.828 150.328 273.485 150.328 275.142 150.493C277.461 150.7 279.574 150.162 281.645 149.212C282.763 148.715 283.095 147.723 282.515 146.648C281.852 145.408 280.817 144.622 279.408 144.333C278.331 144.126 277.254 143.919 276.177 143.837C274.272 143.671 273.278 142.555 272.615 140.943C272.408 140.405 272.408 140.157 273.071 139.95C274.231 139.62 275.39 139.372 276.467 138.834C276.799 138.669 277.089 138.503 277.006 138.049C276.84 137.222 276.674 136.395 276.55 135.568C276.467 134.948 276.219 134.948 275.722 135.154C274.355 135.775 272.988 136.436 271.538 136.767C271.124 136.891 270.544 137.263 270.337 136.643C270.171 136.064 270.875 136.023 271.248 135.775C271.331 135.733 271.455 135.692 271.58 135.692C272.532 135.444 273.444 135.072 274.313 134.658C274.728 134.452 274.769 134.245 274.686 133.831C274.686 133.749 274.645 133.666 274.603 133.542C278.787 132.591 282.888 131.351 286.864 129.738C296.225 126.017 304.965 120.395 311.799 112.994C315.155 109.314 318.054 105.221 320.249 100.756C321.865 96.8283 324.599 91.0815 321.782 86.7817ZM244.904 38.4088C244.78 39.1944 244.697 40.0213 244.656 40.8482C244.615 41.5097 244.159 42.1712 243.538 42.0471C237.739 41.0962 231.981 39.8146 226.224 38.7809C225.312 38.6156 224.401 38.4502 223.49 38.3262C222.993 38.2435 222.454 37.3752 222.537 36.9205C223.324 32.662 224.235 28.5276 224.939 24.2278C225.809 18.729 226.679 13.0648 227.549 7.56601C227.673 6.69778 227.922 5.74686 228.005 4.87863C228.046 4.42384 228.792 3.80367 229.206 3.96905C233.555 5.54013 238.194 5.74686 242.419 7.81407C244.283 8.72365 246.976 10.1294 249.088 10.5015C249.709 10.5841 248.715 11.4524 248.757 11.7831C248.549 14.3465 248.094 16.8685 247.763 19.3905C247.348 22.698 247.017 26.0056 246.478 29.2718C245.857 32.3312 245.402 35.3494 244.904 38.4088ZM245.733 41.9231C245.65 41.8818 245.567 41.8404 245.567 41.7164C245.567 41.6337 245.567 41.5097 245.567 41.427C245.567 41.3856 245.567 41.3856 245.567 41.3443C245.609 40.0213 245.774 38.7396 245.981 37.4166C246.23 36.0109 246.478 34.6465 246.81 33.2408C247.1 32.0005 247.39 30.7601 247.514 29.5198C247.638 28.2381 247.763 26.9151 247.887 25.6335C248.094 23.0288 248.508 20.4654 248.839 17.9021C248.922 17.2819 249.005 16.6617 249.047 16.0829C248.964 15.4628 249.005 14.8426 249.129 14.2224C249.171 14.0571 249.171 13.933 249.212 13.7676C249.212 13.6023 249.254 13.4782 249.254 13.3129C249.295 12.8994 249.378 12.2379 249.626 11.7418C249.626 11.7004 249.626 11.6591 249.668 11.6177C249.916 11.2043 250.165 10.8322 250.496 10.5428C251.2 9.92263 252.112 10.0053 253.023 10.0467C254.514 10.088 255.964 10.0053 257.455 10.0467C260.355 10.1294 263.213 10.5841 266.112 10.5428C266.816 10.5428 267.52 10.5014 268.225 10.4188C268.763 10.3774 269.301 10.2534 269.84 10.212C270.171 10.1707 270.586 10.212 270.793 10.5015C271.083 10.8735 271 11.4524 270.917 11.9072C270.834 12.5273 270.668 13.1475 270.503 13.7676C270.337 14.4292 270.296 15.0907 270.254 15.7935C270.171 17.2406 270.088 18.6876 269.964 20.1347C269.757 23.0288 269.55 25.9642 269.053 28.817C268.556 31.6697 267.852 34.4811 267.603 37.3752C267.52 38.1194 267.479 38.8636 267.396 39.6078C267.355 40.104 267.313 40.6414 267.065 41.1376C266.692 41.8404 265.905 41.8404 265.242 41.9231C263.834 42.0885 262.467 42.2952 261.059 42.4192C259.692 42.5433 258.283 42.626 256.917 42.5846C255.467 42.5433 254.059 42.4192 252.609 42.3779C251.242 42.3366 249.875 42.4192 248.467 42.4192C247.721 42.4192 246.934 42.5433 246.189 42.2952C245.981 42.1712 245.857 42.0471 245.733 41.9231ZM267.769 44.4451C266.071 44.7759 264.372 44.5691 262.674 44.4865C261.1 44.4038 259.485 44.3624 257.911 44.3211C256.337 44.2384 254.804 44.1144 253.23 44.2384C251.863 44.3211 250.538 44.4865 249.212 44.5278C248.218 44.5691 247.017 44.4865 246.313 43.7009C246.147 43.5355 246.313 43.2048 246.561 43.2875C246.686 43.3288 246.851 43.2461 246.976 43.2461C247.058 43.2461 247.1 43.2461 247.141 43.2875C249.751 43.2875 252.319 43.2461 254.887 43.3702C257.331 43.4942 259.816 43.6182 262.218 43.2048C263.503 42.9981 264.828 43.1634 266.029 42.5846C266.361 42.4192 266.816 42.7087 267.355 42.9567C266.485 43.2875 265.698 43.0394 264.994 43.5355C265.905 43.6182 266.775 43.7009 267.686 43.7836V43.949C267.727 43.949 267.769 43.949 267.81 43.9903C268.017 44.0317 268.059 44.4038 267.769 44.4451ZM268.597 44.073C268.432 44.073 268.266 43.8663 268.39 43.7009C268.39 43.6596 268.432 43.6596 268.432 43.6182H268.39C268.473 42.5846 269.177 41.7164 268.97 40.5174C268.432 41.2616 268.39 42.0885 267.935 42.9567C269.301 33.4475 271.373 24.2691 271.373 14.8426C271.538 14.8426 271.662 14.8426 271.828 14.8426C271.87 15.9176 271.952 16.9512 271.994 18.0261C272.035 17.8194 272.035 17.5713 272.118 17.3646C272.16 17.1165 272.242 16.8271 272.408 16.5791C272.408 16.4964 272.449 16.455 272.491 16.4137C272.657 16.207 272.864 16.0416 273.154 16.0416C273.278 16.0416 273.361 16.1243 273.402 16.207C273.692 17.0338 273.651 17.9848 273.568 18.853C273.485 19.8039 273.319 20.7548 273.154 21.7058C272.988 22.6567 272.905 23.6489 272.739 24.6412C272.532 25.7575 272.325 26.8738 272.16 28.0314C271.745 30.3054 271.373 32.6206 270.958 34.8946C270.751 36.0522 270.544 37.1685 270.378 38.3262C270.213 39.3184 270.047 40.352 269.923 41.3856C269.757 42.1298 269.799 44.197 268.597 44.073ZM104.528 54.1197C104.28 53.8716 104.487 53.7476 104.653 53.6649C105.315 53.3341 105.937 52.962 106.558 52.6313C110.534 50.3573 113.517 47.0911 116.043 43.3702C116.292 42.9567 116.375 43.0394 116.623 43.3702C117.7 44.6932 118.322 46.2643 119.316 47.6286C120.89 49.9026 122.712 52.0525 124.369 54.2437C125.073 55.1533 125.073 55.236 124.369 56.1042C122.919 57.9647 121.263 59.5771 119.233 60.8175C117.576 61.8511 115.754 62.5539 113.972 63.3395C113.6 63.5048 113.434 63.2568 113.227 63.0914C112.274 62.3472 111.57 61.3549 110.534 60.7348C110.245 60.5694 109.955 60.3627 109.665 60.1973C109.416 60.0733 109.209 59.9906 109.333 59.7425C109.665 58.6675 109.665 57.6753 109.582 56.683C109.54 56.435 109.499 56.1455 109.416 55.8975C109.333 55.6494 109.168 55.4013 108.878 55.36C108.546 55.3187 108.381 55.5254 108.215 55.7321C107.925 56.1869 107.594 56.6003 107.304 57.0551C107.138 57.3032 107.014 57.3032 106.848 57.0551C106.144 56.0215 105.398 54.9879 104.528 54.1197ZM103.741 64.249C105.315 61.8097 106.807 59.2877 108.629 56.7657C108.795 57.9234 108.712 58.8743 108.339 59.7838C108.132 60.3213 108.173 60.6107 108.836 60.7761C109.747 61.0242 110.369 61.727 111.032 62.3058C111.363 62.5953 111.363 62.8847 111.032 63.2154C109.623 64.7038 108.008 65.9028 106.268 66.9778C105.895 67.1845 105.688 67.1431 105.357 66.8124C104.777 66.1509 104.404 65.324 103.741 64.7452C103.617 64.6211 103.617 64.4557 103.741 64.249ZM67.9122 76.9831C68.8649 79.0089 70.3975 80.3733 72.7585 80.6627C75.7822 81.0762 78.4746 79.3397 79.5101 76.2389C79.5929 76.0322 79.6344 75.8254 79.7172 75.6187C79.8 75.3293 79.8 74.9985 80.2971 75.1639C80.7527 75.288 80.877 75.4533 80.7942 75.9081C80.5042 77.7273 79.6758 79.381 78.4332 80.6214C76.652 82.3165 74.3739 82.9366 71.93 82.1924C69.6933 81.5309 67.9122 80.2493 66.8767 78.058C66.5039 77.3138 65.9654 76.6523 65.7583 75.7841C66.711 75.7427 67.4151 75.9495 67.9122 76.9831ZM69.2791 103.94C69.1963 104.146 69.072 104.436 68.9477 104.725C67.498 107.288 65.5512 109.273 62.8588 110.513C62.5275 110.637 62.0718 110.968 61.8647 110.637C61.6576 110.265 62.1961 110.058 62.486 109.893C65.2612 108.487 67.2909 106.379 68.782 103.691C68.8649 103.567 68.9477 103.319 69.1134 103.361C69.3619 103.443 69.3205 103.691 69.2791 103.94ZM77.2734 114.606C77.3562 114.482 77.439 114.4 77.5633 114.317C77.6047 114.4 77.6047 114.524 77.6047 114.606C77.5219 114.606 77.3976 114.606 77.2734 114.606ZM82.9895 99.433C78.5574 99.9292 74.1254 100.508 69.6519 100.797C66.8352 101.004 64.06 101.335 61.2848 101.583C60.6221 101.624 60.4978 101.459 60.5392 100.839C60.8292 95.9188 60.3736 91.0401 59.1724 86.2855C59.0895 85.9548 59.0895 85.7067 59.2966 85.4587C59.8351 84.6731 60.415 83.9289 61.3677 83.5568C61.5748 83.4741 61.8233 83.3914 61.7819 83.102C61.7404 82.8126 61.4505 82.7713 61.202 82.7713C60.7049 82.8126 60.3321 83.0607 59.9593 83.3087C58.4268 84.4664 57.764 86.1202 57.3498 87.898C56.7699 90.2546 56.3143 92.6525 56.2729 95.0919C56.2315 96.5803 56.2729 98.0273 56.2314 99.5157C56.19 100.177 55.9829 100.343 55.3616 100.343C53.2077 100.26 51.0538 100.219 48.8999 100.177C48.5271 100.177 48.4443 100.012 48.4857 99.6811C48.5271 98.6475 48.5686 97.5725 48.61 96.6216C50.2254 96.5389 51.7165 96.663 53.2077 96.7456C53.4977 96.7456 53.7876 96.7456 53.7876 96.3322C53.7876 95.8361 53.4562 95.9601 53.2077 95.9188C52.1308 95.8361 51.0538 95.712 50.0183 95.6293C49.7698 95.588 49.6455 95.5467 49.6041 95.2572C49.4798 92.9833 49.397 90.7507 49.894 88.5181C50.5568 85.376 51.5094 82.3992 53.3734 79.7531C55.0302 77.4379 57.3084 76.0735 60.1665 75.8254C61.5333 75.7014 62.9417 75.6187 64.3086 75.6187C64.8056 75.6187 65.0127 75.7841 65.1784 76.2389C66.2139 78.7609 67.5394 81.0348 70.1489 82.3165C73.1727 83.8049 76.0721 83.5155 78.5988 81.531C80.2143 80.2906 81.1255 78.3888 81.4983 76.3216C81.6226 75.6187 81.7883 75.412 82.5753 75.4533C84.812 75.536 87.0073 74.9159 89.0369 74.089C93.966 72.0631 98.191 69.0036 101.795 65.0759C102.167 64.6625 102.333 64.5798 102.747 65.0759C103.866 66.4816 104.901 67.97 105.895 69.4584C106.392 70.1613 107.014 70.6987 107.552 71.3602C107.801 71.691 107.801 71.8977 107.428 72.1044C107.221 72.2285 107.014 72.3939 106.807 72.5179C105.812 73.2207 105.812 73.2207 104.984 72.2698C104.197 71.3602 103.451 70.4093 102.747 69.4584C102.54 69.169 102.292 68.7969 101.877 69.0863C101.505 69.3757 101.753 69.7065 101.919 69.9959C102.582 71.1122 103.369 72.1458 104.28 73.0554C104.694 73.5101 104.777 73.8409 104.28 74.2543C103.617 74.7918 103.037 75.4533 102.375 75.9495C97.6525 79.6291 92.3506 82.1511 86.5517 83.5568C86.2203 83.6395 86.0546 83.5568 85.9718 83.2261C85.8889 82.978 85.8061 82.7713 85.7233 82.5646C85.599 82.2751 85.5162 81.8617 85.1019 81.9857C84.6877 82.1098 84.8534 82.4819 84.9363 82.8126C86.0546 86.6576 87.1316 90.4613 88.4156 94.265C88.8298 95.5467 89.1612 96.8283 89.5754 98.11C89.7411 98.6475 89.5754 98.7302 89.1198 98.7715C87.0487 99.0609 85.0191 99.2263 82.9895 99.433ZM193.791 86.8643C193.915 87.3605 194.371 87.3605 194.785 87.3605C195.158 87.3605 195.489 87.3605 195.903 87.5259C195.572 87.6912 195.241 87.8566 194.951 88.0633C194.536 88.3528 194.164 88.7248 194.495 89.221C194.785 89.6344 194.578 89.7171 194.247 89.8411C190.684 91.1642 187.039 92.2804 183.353 93.1487C182.856 93.2727 182.69 93.1487 182.649 92.6939C182.441 91.2055 182.193 89.7171 181.779 88.2701C181.737 88.1047 181.654 87.898 181.903 87.6912C182.939 86.9884 183.933 86.2442 184.885 85.5C186.087 84.5904 187.412 83.8876 188.903 83.2261C188.696 84.6318 188.945 84.9212 190.312 84.7971C192.01 84.6318 193.708 84.5904 195.406 84.7971C195.572 84.8385 195.738 84.7558 195.903 84.9625C195.489 85.4586 194.951 85.7067 194.412 85.9961C194.081 86.1202 193.667 86.3269 193.791 86.8643ZM187.951 58.7502C191.264 57.758 194.578 56.7657 197.767 55.36C198.389 55.0706 198.969 54.7398 199.59 54.4504C199.838 54.3264 200.004 54.2851 200.004 54.6572C200.17 56.8897 200.708 59.081 200.957 61.3136C200.998 61.7684 200.874 62.0164 200.501 62.2645C199.797 62.7193 199.134 63.2154 198.471 63.6702C198.223 63.8356 197.974 64.0423 197.809 64.4971C199.093 64.3317 200.087 63.7529 201.164 63.1327C201.412 64.7038 201.661 66.1922 201.909 67.6806C201.909 67.7219 201.909 67.7633 201.909 67.846C202.241 69.7892 202.241 69.7892 200.501 70.6161C197.436 72.0218 194.288 73.1794 191.057 74.1303C190.767 74.213 190.519 74.337 190.063 74.4611C190.726 74.7091 191.223 74.5851 191.72 74.5024C195.241 73.8822 198.637 72.766 201.785 71.0295C202.324 70.7401 202.448 70.7814 202.531 71.4016C202.655 72.4352 202.821 73.4688 203.152 74.4611C203.276 74.8332 203.152 74.9159 202.862 75.0812C202.365 75.3706 201.827 75.6187 201.329 75.9495C200.957 76.1975 200.625 76.5283 200.75 77.0244C200.874 77.5205 201.288 77.6859 201.702 77.8513C201.868 77.934 202.075 77.934 202.365 78.0167C202.034 78.3061 201.744 78.5128 201.495 78.7609C201.081 79.1743 200.667 79.5878 200.874 80.2079C201.04 80.8281 201.619 80.7454 202.117 80.8694C201.868 81.5309 201.454 82.1511 201.702 82.8953C201.827 83.2261 202.117 83.4328 202.572 83.5982C201.744 84.0529 201.04 84.3837 200.335 84.7971C199.383 85.376 198.306 85.7067 197.477 86.5336C197.187 86.823 196.856 86.3269 196.442 86.4096C196.732 86.0375 196.98 85.7481 197.187 85.4173C197.684 84.5491 197.394 83.9289 196.4 83.8049C194.578 83.5982 192.714 83.3501 190.85 83.6808C190.311 83.7635 190.146 83.7222 190.104 83.1434C190.063 82.3578 189.317 81.9857 188.448 82.3165C187.329 82.7299 186.252 83.3087 185.3 84.0116C184.14 84.8385 182.939 85.6654 181.903 86.6576C181.779 86.7817 181.613 87.0297 181.447 86.6576C181.24 86.1615 180.785 86.1615 180.329 86.2442C179.749 86.3269 179.045 86.6163 178.631 86.4096C178.175 86.2028 178.341 85.376 178.217 84.8385C177.43 81.7377 176.974 78.5542 176.477 75.3706C176.435 74.9985 176.56 74.8332 176.891 74.7505C177.264 74.6264 177.678 74.4611 177.844 74.0063C177.595 73.8409 177.305 73.7582 177.057 73.8409C176.353 74.0063 176.311 73.6342 176.27 73.0554C176.104 70.9468 175.98 68.8382 175.938 66.6883C175.938 66.1922 176.021 65.8615 176.56 65.6961C176.808 65.6134 177.222 65.4894 177.14 65.1586C177.057 64.8279 176.643 64.8692 176.394 64.9105C176.021 64.9519 175.98 64.7865 176.021 64.4971C176.021 64.001 176.063 63.5048 176.063 63.05C176.063 61.9337 176.063 61.9338 177.14 61.727C177.388 61.6857 177.637 61.6443 177.844 61.6443C179.045 61.5203 179.004 61.5203 179.086 62.7606C179.501 69.293 179.791 75.8668 181.572 82.2338C181.779 82.978 182.027 83.6808 182.317 84.3837C182.441 84.7145 182.566 85.2519 183.063 85.0452C183.56 84.8798 183.311 84.425 183.228 84.0943C182.441 81.2829 181.779 78.4301 181.365 75.536C181.24 74.6264 181.157 73.7169 181.033 72.766C180.95 72.2698 181.075 72.0631 181.654 72.0218C183.726 71.8564 185.797 71.6497 187.743 70.8641C188.24 70.6574 188.738 70.4507 189.152 69.9545C188.696 69.8305 188.323 69.9959 187.992 70.0786C185.962 70.5747 183.891 70.9055 181.779 71.1122C181.157 71.1949 180.867 71.0708 180.826 70.3266C180.743 68.8796 180.578 67.4739 180.453 66.0268C180.412 65.572 180.578 65.4894 180.992 65.448C182.814 65.2413 184.513 64.6625 186.211 63.7529C185.672 63.5048 185.258 63.6702 184.844 63.7116C183.518 63.9596 182.193 64.2077 180.909 64.4971C180.495 64.5798 180.329 64.4971 180.329 64.0423C180.329 63.3808 179.998 62.5539 180.288 62.1405C180.619 61.6443 181.489 62.2232 182.11 62.1405C182.234 62.1405 182.359 62.1405 182.483 62.1818C183.933 62.6779 184.927 62.0578 185.589 60.8175C185.962 59.6185 186.832 59.081 187.951 58.7502ZM175.566 60.6107C175.027 60.528 174.489 60.4867 174.116 60.0319C173.95 59.7838 173.66 59.8665 173.453 59.8665C172.666 59.8252 171.921 59.7425 171.092 59.5358C172.086 58.0474 173.205 56.7657 174.489 55.6494C178.672 52.1352 182.027 47.918 184.927 43.2875C185.258 42.75 185.507 42.6673 186.087 42.9154C188.779 44.1557 191.596 45.148 194.371 46.2229C194.826 46.3883 194.868 46.5537 194.661 47.0085C193.625 49.0343 192.175 50.7294 190.684 52.4246C189.566 53.6649 188.862 55.1946 187.743 56.435C186.418 57.882 185.175 59.4117 183.974 60.9828C183.808 61.1895 183.601 61.2722 183.311 61.2309C180.743 60.8175 178.134 61.0242 175.566 60.6107ZM175.648 80.2079C175.938 80.2493 176.063 80.332 176.145 80.6214C176.477 82.2751 176.85 83.9289 177.222 85.624C177.388 86.4509 177.057 86.9057 176.145 86.9057C175.607 86.947 175.069 86.9057 174.53 87.0297C174.406 87.0711 174.24 87.0297 174.199 87.1124C173.412 87.9393 172.418 87.5259 171.506 87.6085C171.092 87.6499 170.926 87.4432 170.885 87.0711C170.512 85.1692 169.932 83.3501 169.642 81.4482C169.477 80.4973 169.601 79.4637 168.855 78.4715C171.258 79.257 173.412 79.8358 175.648 80.2079ZM163.636 97.9033C160.82 98.1927 157.962 98.1514 155.186 97.6139C150.216 96.6216 147.606 93.9342 146.778 88.7248C146.488 87.0297 146.281 85.3346 146.281 83.6395C146.322 80.58 147.606 78.1821 150.63 77.0658C151.666 76.6937 152.701 76.4043 153.778 76.1975C154.772 75.9908 155.642 76.2802 156.47 76.7763C157.216 77.1898 157.962 77.6859 158.666 78.1821C160.364 79.3397 162.228 79.6291 164.133 78.8849C165.003 78.5542 165.666 77.9753 166.08 77.1484C166.204 76.9004 166.329 76.6937 166.66 76.6937C166.991 76.6937 167.074 76.9831 167.157 77.2311C167.488 78.2647 167.861 79.2983 168.151 80.3733C168.69 82.5645 169.187 84.7558 169.684 86.9057C169.808 87.4018 169.725 87.6086 169.145 87.5672C166.204 87.4432 163.305 87.2365 160.571 85.9961C157.879 84.7971 156.056 82.8953 156.098 79.6705C155.642 79.7531 155.559 80.0425 155.518 80.3733C155.269 82.5645 157.216 85.7481 159.08 86.4923C161.69 87.5259 164.465 87.898 167.199 88.146C171.382 88.5595 175.566 88.2701 179.749 87.5672C180.163 87.4845 180.329 87.5259 180.453 88.022C180.867 89.9238 181.157 91.867 181.53 93.7688C181.613 94.1823 181.53 94.3477 181.116 94.4717C175.441 96.0014 169.601 97.3245 163.636 97.9033ZM254.224 76.4869C254.846 75.66 255.425 74.8332 256.047 74.0063C256.13 73.8822 256.212 73.5515 256.42 73.7169C256.709 73.9236 256.999 74.2543 257.165 74.5438C257.289 74.7505 256.958 74.7918 256.792 74.8745C256.502 74.9985 256.171 75.1226 255.922 75.288C255.508 75.536 255.26 75.9081 255.55 76.3629C255.798 76.8177 255.591 77.0658 255.218 77.2725C254.68 77.5619 254.183 77.934 253.479 78.058C253.603 77.4379 253.893 76.9417 254.224 76.4869ZM246.768 74.7091C247.058 74.0063 247.348 74.089 247.845 74.5851C248.839 75.4947 249.916 76.2802 251.035 77.1898C250.828 77.3138 250.703 77.3965 250.579 77.4379C249.461 77.934 249.461 77.934 249.047 76.8177C248.632 75.7014 248.632 75.7014 247.39 75.7841C247.058 75.8254 246.561 75.9495 246.396 75.66C246.23 75.3293 246.644 74.9985 246.768 74.7091ZM242.461 144.25C242.129 146.193 242.378 148.054 243.869 149.542C244.532 150.204 245.153 150.865 245.774 151.568C246.478 152.312 246.893 153.139 246.81 154.214C246.727 155.579 245.402 156.488 244.117 156.033C243.33 155.744 242.709 155.206 242.129 154.669C240.597 153.305 239.395 151.651 238.153 150.038C237.78 149.542 237.614 148.963 237.697 148.343C237.904 146.979 237.863 145.615 237.821 144.25C237.78 143.506 238.029 143.258 238.733 143.423C238.94 143.465 239.147 143.423 239.354 143.423C240.265 143.506 241.135 143.589 242.005 143.671C242.336 143.671 242.543 143.713 242.461 144.25ZM243.869 108.984C243.703 109.149 243.413 109.232 243.206 108.984C243.041 108.735 243.123 108.529 243.289 108.322C244.449 107.123 245.402 105.759 245.94 104.146C245.981 103.981 246.106 103.816 246.271 103.898C246.561 104.022 246.396 104.312 246.478 104.642C246.106 106.338 245.153 107.785 243.869 108.984ZM248.301 135.568C249.171 132.178 250.124 128.746 251.159 125.397C252.319 121.718 253.52 118.038 254.224 114.193C254.431 113.118 254.68 112.043 255.094 111.051C255.343 110.472 255.633 109.934 256.171 109.562C256.171 110.555 255.881 111.382 255.674 112.25C255.094 114.4 254.763 116.426 255.384 118.741C256.917 124.24 258.946 129.532 260.727 134.948C256.627 135.361 252.485 135.568 248.301 135.568ZM266.029 98.7715C259.775 99.8465 253.437 100.136 247.141 100.467C245.567 100.549 244.035 100.26 242.461 100.467C241.922 100.549 241.922 100.136 241.881 99.8051C241.756 97.5312 241.591 95.2986 241.549 93.0247C241.467 89.6344 241.425 86.2442 241.342 82.8953C241.342 82.3992 241.301 81.903 241.218 81.4069C241.177 80.9108 240.969 80.4146 241.798 80.2493C242.254 80.1666 242.254 79.6704 241.839 79.381C241.591 79.2157 241.301 79.133 241.011 79.0089C239.147 78.3888 237.366 77.6032 235.626 76.611C234.963 76.2389 234.798 75.9081 235.212 75.1226C236.165 73.4275 236.952 71.6497 237.739 69.9132C237.946 69.4171 238.111 69.2517 238.526 69.7478C240.348 71.815 242.751 72.89 245.443 73.2621C246.189 73.3861 246.106 73.5928 245.774 74.089C244.532 76.1148 244.78 76.611 247.183 76.611C247.638 76.611 247.887 76.7764 248.011 77.1898C248.094 77.4379 248.218 77.6859 248.301 77.934C248.508 78.4715 248.922 78.6368 249.502 78.5128C250.206 78.3474 250.869 78.1821 251.532 77.8926C251.905 77.7273 252.153 77.7273 252.153 78.3061C252.236 79.381 252.153 80.4146 252.195 81.4896C252.236 81.779 252.236 82.0684 252.319 82.3992C252.36 82.6472 252.443 82.9366 252.733 82.9366C252.982 82.9366 252.982 82.6059 253.023 82.3992C253.147 81.5723 253.147 80.7041 253.064 79.8772C253.023 79.4224 253.106 79.1743 253.603 79.0503C254.473 78.8436 255.177 78.3061 255.964 77.8926C256.502 77.6032 256.668 77.1071 256.502 76.5696C256.378 76.1148 256.585 75.9908 256.917 75.8668C258.781 74.9985 258.822 74.9159 257.414 73.3448C257.372 73.3034 257.331 73.2207 257.207 73.014C260.23 72.3939 262.011 70.3266 263.627 68.0114C264.082 67.3498 264.29 67.4325 264.704 67.97C265.864 69.4584 267.438 70.5747 268.722 71.9391C269.136 72.3939 269.136 72.6419 268.846 73.1794C267.645 75.2879 265.491 76.2389 263.544 77.3965C262.177 78.2234 262.094 78.1821 262.343 79.7531C263.213 85.1279 263.875 90.544 265.449 95.7947C265.698 96.5803 265.905 97.3658 266.236 98.11C266.526 98.5234 266.568 98.6888 266.029 98.7715ZM270.171 140.943C270.503 140.819 270.668 140.86 270.751 141.232C270.793 141.48 270.917 141.728 271.041 141.976C271.952 144.25 273.651 145.367 276.053 145.532C276.964 145.615 277.876 145.739 278.828 145.904C279.574 146.028 280.154 146.359 280.609 146.938C280.982 147.434 281.024 147.764 280.319 148.013C278.497 148.674 276.674 149.212 274.893 148.963C273.195 148.963 271.663 148.839 270.171 148.674C268.846 148.509 268.349 148.095 268.059 146.772C267.727 145.284 267.645 143.754 267.189 142.307C267.065 141.935 267.355 141.894 267.562 141.811C268.432 141.521 269.301 141.232 270.171 140.943ZM259.609 80.9108C258.698 80.9935 257.786 81.0762 256.875 81.2002C256.585 81.2415 256.419 81.3656 256.337 81.6136C255.922 82.8126 256.461 83.5568 257.704 83.5568C257.786 83.5568 257.869 83.5568 258.118 83.5568C258.615 83.6395 259.278 83.4328 259.982 83.3914C260.396 83.3501 260.603 83.102 260.603 82.6886C260.603 82.3992 260.562 82.1098 260.603 81.779C260.603 81.0761 260.23 80.8281 259.609 80.9108ZM259.319 82.5232C258.863 82.5646 258.408 82.6472 257.952 82.6886C257.621 82.6059 257.165 82.8953 257.165 82.2751C257.165 81.7377 257.579 81.903 257.869 81.8617C258.325 81.779 258.781 81.779 259.236 81.7377C259.485 81.6963 259.733 81.7377 259.733 82.1098C259.733 82.3992 259.65 82.5232 259.319 82.5232ZM246.561 57.4686C246.23 57.5099 246.064 57.6753 246.064 57.9234C246.147 58.4608 246.437 58.8329 246.976 58.9156C247.224 58.957 247.39 58.7502 247.348 58.5022C247.307 58.0474 247.058 57.6339 246.561 57.4686ZM251.946 56.3109C251.905 55.9388 251.822 55.5667 251.366 55.5254C250.993 55.484 250.828 55.7321 250.828 56.0629C250.828 56.435 251.035 56.7657 251.449 56.8071C251.78 56.8897 251.905 56.6003 251.946 56.3109ZM77.4805 49.0343C77.2319 49.117 77.1077 48.8689 76.9834 48.7036C76.7763 48.4142 76.652 48.1248 76.4449 47.8353C76.0722 47.2565 75.6165 47.2152 75.1195 47.67C74.9538 47.8353 74.8295 48.0421 74.7053 48.2488C74.3739 48.8276 74.3325 49.4478 74.291 50.0679C74.291 50.4814 74.2496 50.9775 73.7526 51.0189C73.2555 51.0602 73.2555 50.5227 73.1312 50.192C73.0484 49.9852 72.9656 49.7372 72.8827 49.4891C72.6756 48.9103 72.22 48.6622 71.6401 48.6622C71.0602 48.6622 70.6874 48.9103 70.3975 49.4064C70.0247 50.0679 70.0247 50.8121 69.9004 51.515C69.859 51.7631 69.859 52.0938 69.5276 52.1352C69.1963 52.1765 68.9891 51.9698 68.8649 51.6804C68.6578 51.3083 68.4921 50.8948 68.2436 50.5227C67.9536 50.0266 67.498 49.6958 66.9181 49.7785C66.3382 49.8612 65.9654 50.2333 65.7169 50.7708C65.5098 51.2256 65.3855 51.7631 65.3855 52.2592C65.4269 52.838 65.4269 53.3341 65.0541 53.8303C65.4684 54.037 65.7997 53.8303 66.1725 53.7476C68.4507 53.0861 70.646 52.2178 72.9656 51.6804C74.6638 51.3083 76.4449 51.1429 78.1018 50.5641C78.6403 50.3573 78.6817 50.1506 78.516 49.6958C78.3089 49.0757 77.8118 48.6622 77.729 48.0007C77.729 48.1661 77.6461 48.3315 77.6876 48.4969C77.6876 48.7036 77.729 48.9516 77.4805 49.0343ZM67.5394 51.9698C67.3323 52.0938 67.0838 52.1765 66.8767 52.2592C66.7524 52.3005 66.5867 52.3005 66.4625 52.2178C66.3796 52.1352 66.3382 52.0525 66.3796 51.9698C66.5867 51.5977 65.8411 50.9775 66.711 50.8121C66.8352 50.7708 66.9181 50.7294 67.0424 50.6881C67.2909 50.6468 67.5394 50.4814 67.7051 50.7708C67.8294 51.0189 67.4566 51.1015 67.3737 51.3496C67.5394 51.4736 67.8708 51.3083 67.9122 51.639C67.9536 51.7631 67.7051 51.8871 67.5394 51.9698ZM71.1016 51.1842C70.3975 51.1842 70.7702 50.5641 70.7702 50.3987C70.7288 49.8199 71.3087 49.8612 71.6815 49.7372C71.8886 49.7785 72.1371 49.6958 72.0957 50.0266C72.0543 50.6881 71.6401 51.1842 71.1016 51.1842ZM74.9538 49.1997C74.8709 48.8276 75.368 48.8276 75.6579 48.7036C75.8236 48.6209 76.1136 48.5795 76.1964 48.7863C76.3207 49.117 75.9065 49.117 75.7822 49.3237C75.4922 49.2411 75.0366 49.6545 74.9538 49.1997ZM75.9065 50.0679C75.6579 50.1506 75.2851 50.3573 75.1195 50.0679C74.9124 49.5718 75.5337 49.6131 75.7408 49.3651C76.0307 49.4064 76.4864 49.0343 76.6106 49.4478C76.7763 49.9026 76.2378 49.9439 75.9065 50.0679ZM251.656 65.6961C251.698 65.8615 251.822 65.9855 251.987 66.0268C252.609 66.1509 253.106 65.9441 253.561 65.5307C253.976 65.1173 254.266 64.6625 253.934 63.9183C253.313 64.5798 252.733 65.1586 251.905 65.3653C251.698 65.4067 251.615 65.5307 251.656 65.6961ZM255.757 53.9543C254.804 51.4323 253.354 49.1584 250.911 48.0421C247.1 46.3056 243.082 46.4296 239.188 47.8767C237.076 48.6622 235.792 50.316 235.46 52.5486C235.378 53.0034 235.295 53.3341 234.881 53.6235C233.431 54.6572 232.768 56.0629 232.81 57.8407C232.892 60.1973 233.845 62.1405 235.419 63.8356C237.117 65.6961 239.395 66.6883 241.508 67.8873C241.798 68.0527 242.212 68.1354 242.543 68.1354C243.04 68.094 243.33 68.3008 243.662 68.6315C245.526 70.7814 247.97 71.691 250.786 71.7737C251.325 71.7737 251.863 71.7737 252.402 71.6497C254.928 70.9881 257.248 68.3008 257.414 65.4067C257.579 62.7606 256.958 60.1559 255.964 57.6753C255.798 57.3032 255.591 56.8897 255.798 56.5176C256.254 55.6081 256.088 54.7812 255.757 53.9543ZM256.295 63.5462C256.254 65.572 255.757 67.5152 254.183 69.0863C253.106 70.1613 251.822 70.6161 250.248 70.492C246.644 70.1613 244.159 68.3421 242.585 65.1586C242.129 64.249 242.129 64.249 241.259 64.8692C241.052 64.9932 240.887 65.1173 240.68 65.0346C240.431 64.9105 240.39 64.6625 240.39 64.4144C240.431 63.6289 240.638 62.926 241.052 62.2645C242.336 60.1559 242.254 57.9234 241.467 55.6494C241.342 55.236 240.638 54.9879 240.969 54.4918C241.177 54.161 241.715 54.037 242.088 53.8716C244.78 52.714 247.555 51.8457 250.579 52.5899C251.408 52.7967 252.029 53.2514 252.526 53.8716C254.846 56.559 256.254 59.7425 256.295 63.5462ZM59.9179 55.1119C60.0422 55.5254 60.0008 55.8975 59.8351 56.3109C59.5451 57.0965 59.4623 57.9234 59.5866 58.7502C59.6694 59.1637 59.628 59.4944 59.4623 59.8665C59.0067 60.9828 59.2552 62.0991 60.125 62.5126C60.912 62.8433 60.9949 63.2981 60.7878 63.9596C60.7463 64.125 60.7463 64.2904 60.7463 64.4557C60.7049 66.3576 62.5689 68.4661 64.35 68.3835C64.7642 68.3835 64.9299 68.5075 65.137 68.7969C67.5394 72.2698 70.9773 73.4275 75.0366 72.9727C77.3562 72.6833 78.9716 71.4429 79.8415 69.2517C80.3385 68.0527 80.5456 66.771 80.6699 65.4894C80.9184 62.8433 80.3799 60.2386 79.8415 57.6753C79.7586 57.2618 79.6344 56.8484 80.1314 56.559C80.4214 56.3936 80.4628 56.0215 80.5042 55.6908C80.6699 54.3264 80.2557 53.0861 79.5515 51.9284C78.8059 50.7294 78.8059 50.7294 77.4805 51.2669C77.1077 51.4323 77.0248 51.5563 77.2319 51.9284C77.729 52.838 78.0604 53.7889 78.3089 54.7812C78.7231 56.7657 79.1373 58.7916 79.5101 60.8175C79.8829 62.802 79.8829 64.7865 79.5515 66.771C78.9716 70.492 77.2319 72.1044 73.4626 72.1044C70.9359 72.1044 68.6992 71.4016 66.8767 69.4584C64.8885 67.3085 64.0186 64.7452 63.6872 61.9338C63.6458 61.6857 63.7287 61.3963 63.4801 61.2722C63.2316 61.1895 63.1074 61.479 62.9831 61.603C62.3204 62.2232 61.5748 62.2645 60.7878 61.9751C60.0422 61.727 59.7937 61.0655 60.0836 60.1559C60.2907 59.4944 60.6221 59.3291 61.4505 59.5358C61.9061 59.6598 62.1961 59.5771 62.486 59.1637C63.273 58.006 63.7287 56.7244 64.0186 55.4013C64.1429 54.9466 64.0186 54.6985 63.4801 54.8639C62.7346 55.0706 62.0304 55.236 61.2848 55.4013C60.9535 55.484 60.4564 55.8148 60.3321 55.3187C60.2493 54.9466 60.8292 54.9466 61.1191 54.8639C62.2789 54.5331 63.4801 54.2437 64.6813 53.913C64.2671 53.3341 63.9772 52.7967 63.7287 52.2178C63.4801 51.6804 63.1074 51.2256 62.486 51.2256C61.8233 51.2256 61.4919 51.7631 61.2434 52.3005C60.9949 52.8793 60.912 53.4582 60.912 54.0783C60.912 54.2851 60.9949 54.6572 60.7049 54.6985C60.3736 54.6985 60.3736 54.3264 60.3736 54.0783C60.3321 53.2514 60.415 52.4659 60.8292 51.7631C61.699 50.192 63.3145 50.192 64.2671 51.6804C64.35 51.8044 64.3914 52.0111 64.6399 52.0938C64.7228 50.9362 64.9713 49.8612 66.1311 49.3237C67.4566 48.7036 68.285 49.5305 69.072 50.44C69.4034 49.4064 69.6105 48.4142 70.7288 48.0421C71.8058 47.67 72.717 48.0834 73.4626 48.9103C73.6697 48.4555 73.794 48.0007 74.0011 47.6286C74.8295 46.2229 76.2793 46.2229 77.1491 47.5459C77.2734 47.7527 77.3562 47.918 77.6047 47.9594C77.2734 47.7113 77.1491 47.2979 77.0663 46.9671C76.6935 45.4787 75.6994 44.8586 74.2496 44.5278C71.8472 43.949 69.569 43.0394 67.0838 42.8327C66.6696 42.7913 66.3382 42.874 66.0482 43.1634C64.1015 45.2307 62.1132 47.2152 60.2907 49.3651C60.125 49.5718 60.0008 49.7372 59.7522 50.1093C60.2907 49.9026 60.6635 49.7372 60.9949 49.6131C64.5571 48.2901 68.1607 47.1738 71.8058 46.1402C72.9241 45.8095 74.0839 45.6028 75.2023 45.3133C75.4508 45.272 75.7408 45.1893 75.8236 45.5201C75.865 45.8508 75.5337 45.8508 75.3266 45.9335C75.2437 45.9749 75.2023 45.9748 75.1195 45.9748C72.5099 46.595 69.9418 47.2979 67.3737 48.1248C64.8056 48.9516 62.2375 49.8199 59.6694 50.7294C59.0067 50.9775 58.9652 51.2256 59.0895 51.7631C59.4209 52.8793 59.6694 53.9956 59.9179 55.1119ZM61.8233 52.5899C61.9061 52.0938 62.3618 52.1352 62.6931 52.0111C62.9002 52.0111 63.1488 52.0525 63.0659 52.2178C62.9417 52.6313 62.486 52.6726 62.1547 52.7967C61.989 52.8793 61.7819 52.7553 61.8233 52.5899ZM61.6576 53.4995C61.9061 52.962 62.4032 52.8793 62.9002 52.7967C63.1073 52.838 63.3973 52.838 63.273 53.0447C62.9831 53.4995 62.4446 53.6235 61.989 53.7476C61.7819 53.7889 61.6162 53.6649 61.6576 53.4995ZM68.6992 45.5614C68.2436 45.6027 67.7879 45.6028 67.3323 45.6854C66.9181 45.7268 66.5039 45.7681 66.421 46.3056C66.3382 46.6364 66.0068 46.7604 65.6755 46.7604C65.4269 46.7604 65.2612 46.6364 65.137 46.4296C64.9713 46.0989 65.0956 45.8095 65.3441 45.5614C65.7583 45.0653 66.2968 44.8172 66.9181 44.7345C67.498 44.6932 68.0779 44.6932 68.7406 44.6518C69.1134 44.7759 69.9004 44.6105 69.9004 45.148C69.859 45.7681 69.1134 45.5201 68.6992 45.5614ZM77.6461 56.4763C77.8118 56.1456 77.4805 55.9388 77.2319 55.8148C77.0248 55.6908 76.7763 55.6494 76.652 55.6081C75.9893 55.6081 75.5337 55.8148 75.1609 56.1869C74.9952 56.3523 74.8295 56.5176 74.9952 56.7657C75.1609 57.0138 75.4094 56.8897 75.5751 56.7244C75.9893 56.3936 76.4035 56.2696 76.942 56.4763C77.1905 56.6417 77.4805 56.8484 77.6461 56.4763ZM244.739 55.6081C244.035 55.8148 243.496 56.6417 243.538 57.6339C243.662 57.9233 243.496 58.5435 244.076 58.5849C244.739 58.6262 244.49 58.0474 244.573 57.6753C244.656 57.2205 244.697 56.7244 245.194 56.5176C245.526 56.3936 245.691 56.1455 245.526 55.8148C245.36 55.5254 245.029 55.5254 244.739 55.6081ZM251.035 53.4168C251.035 52.962 250.662 52.7553 250.248 52.714C249.502 52.6313 248.632 53.2514 248.425 53.9543C248.384 54.2024 248.301 54.4504 248.591 54.6158C248.839 54.7398 249.005 54.5331 249.129 54.3677C249.419 53.9956 249.709 53.7476 250.124 53.7889C250.621 53.913 250.993 53.9543 251.035 53.4168Z" fill="#2D2D2D"/>
</svg>
